# xmcd CD database file
#
# Track frame offsets:
#	150
#	6670
#	36125
#	60641
#	83837
#	110393
#	140899
#	180459
#	198496
#	219914
#	243571
#	262533
#
# Disc length: 4444 seconds
#
# Revision: 0
# Processed by: cddbd v1.4b42PL1 Copyright (c) Steve Scherf et al.
# Submitted via: Feurio! 1.62 - http://www.feurio.com
#
DISCID=a4115a0c
DTITLE=Willard Grant Conspiracy - Flying Low
DYEAR=1998
DGENRE=Rykodisc
TTITLE0=The Smile At The Bottom Of The Ladder
TTITLE1=Evening Mass
TTITLE2=August List
TTITLE3=St. John Street
TTITLE4=House Is Not A Home (Palmdale, CA)
TTITLE5=Bring The Monster Inside
TTITLE6=No Such Thing As Clean
TTITLE7=It Doesn't Matter
TTITLE8=Eephus Pitch
TTITLE9=Water
TTITLE10=Split Tender
TTITLE11=Untitled
EXTD=SRRCD 35
EXTT0=
EXTT1=
EXTT2=
EXTT3=
EXTT4=
EXTT5=
EXTT6=
EXTT7=
EXTT8=
EXTT9=
EXTT10=
EXTT11=
PLAYORDER=
